<svg xmlns="http://www.w3.org/2000/svg" viewBox="0 0 64 64" style="enable-background:new 0 0 512 512" xml:space="preserve"><path style="fill:#6cc04a" d="M118.596 251.777c-64.609 0-117.173-52.564-117.173-117.172 0-16.138 13.081-29.218 29.218-29.218 16.136 0 29.217 13.08 29.217 29.218 0 32.387 26.35 58.737 58.738 58.737 16.136 0 29.218 13.082 29.218 29.218s-13.081 29.217-29.218 29.217zm274.801 0c-16.137 0-29.217-13.08-29.217-29.216s13.081-29.218 29.217-29.218c32.388 0 58.737-26.349 58.737-58.737 0-16.138 13.081-29.218 29.217-29.218 16.137 0 29.219 13.08 29.219 29.218 0 64.607-52.564 117.171-117.173 117.171z"/><path style="fill:#6cc04a" d="M480.564 333.671c.522-3.378.796-6.839.796-10.365 0-32.504-23.038-59.623-53.676-65.924.009-.462.035-.919.035-1.383 0-24.466-13.056-45.879-32.579-57.663.452-3.15.698-6.368.698-9.641 0-29.01-18.354-53.73-44.081-63.189.083-1.363.137-2.736.137-4.118 0-37.169-30.133-67.302-67.304-67.302h-57.178c-37.171 0-67.304 30.133-67.304 67.302 0 1.383.055 2.754.137 4.118-25.729 9.458-44.081 34.179-44.081 63.189 0 3.274.246 6.493.699 9.641-19.523 11.785-32.58 33.198-32.58 57.664 0 .464.027.921.035 1.383-30.638 6.3-53.676 33.421-53.676 65.924 0 3.524.274 6.986.796 10.365C12.553 345.59 0 366.628 0 390.611c0 37.169 30.133 67.302 67.304 67.302h377.392c37.171 0 67.304-30.133 67.304-67.302 0-23.983-12.552-45.021-31.436-56.94z"/><circle style="fill:#fff" cx="460.37" cy="381.562" r="18.222"/><circle style="fill:#fff" cx="255.994" cy="191.952" r="72.027"/><circle style="fill:#ff7f3f" cx="255.994" cy="191.952" r="33.566"/><path style="opacity:.3;enable-background:new" d="M356.801 298.51h-30.917v26.471c0 11.906-9.653 21.56-21.561 21.56s-21.561-9.652-21.561-21.56V298.51h-63.261c0 11.908-9.653 21.561-21.561 21.561-11.907 0-21.562-9.652-21.562-21.561h-21.191c-11.868 0-12.916 6.969-12.603 10.394 5.254 58.021 54.025 103.486 113.413 103.486 59.387 0 108.158-45.465 113.412-103.486.309-3.425-.739-10.394-12.608-10.394z"/><path style="opacity:.2;enable-background:new" d="M431.713 307.566a9.054 9.054 0 0 0-9.056-9.055c-4.998-.002-9.054 4.049-9.054 9.057-.002 4.997 4.052 9.053 9.053 9.053 5.001.002 9.057-4.058 9.057-9.055zM76.262 390.611a9.054 9.054 0 0 0-9.056-9.055c-4.998-.002-9.054 4.049-9.054 9.057-.002 4.997 4.052 9.05 9.053 9.05 5.001.005 9.058-4.054 9.057-9.052zM146.31 258a9.054 9.054 0 0 0-9.056-9.055c-4.998-.002-9.054 4.049-9.054 9.057-.002 4.997 4.052 9.053 9.053 9.053 5.002.002 9.058-4.058 9.057-9.055zM307.672 95.302a9.054 9.054 0 0 0-9.056-9.055c-4.998-.002-9.054 4.049-9.054 9.057-.002 4.997 4.052 9.053 9.053 9.053 5.001.003 9.058-4.056 9.057-9.055zm58.211 168.668a9.057 9.057 0 0 0-9.056-9.057c-4.997-.002-9.054 4.051-9.053 9.057-.002 5 4.052 9.053 9.053 9.053 5 .002 9.057-4.058 9.056-9.053zm-4.934 157.478a9.057 9.057 0 0 0-9.056-9.057c-4.997-.002-9.054 4.051-9.053 9.057-.002 5 4.052 9.053 9.053 9.053 5 .002 9.056-4.058 9.056-9.053zm43.943-48.947a9.054 9.054 0 0 0-9.056-9.055c-4.998-.002-9.054 4.049-9.054 9.057-.002 4.997 4.052 9.053 9.053 9.053 5.002.003 9.057-4.057 9.057-9.055zm-9.054-134.984a9.057 9.057 0 0 0-9.056-9.057c-4.998-.002-9.054 4.051-9.054 9.057-.002 5 4.052 9.053 9.053 9.053 5.001.002 9.057-4.058 9.057-9.053z"/></svg>